<svg xmlns="http://www.w3.org/2000/svg" viewBox="0 0 75.53 114"><title>Asset 4</title><g id="Layer_2" data-name="Layer 2"><g id="Layer_1-2" data-name="Layer 1"><path d="M73.84,30.07c-2.51-3.31-6.65-4.18-29.23-3.6-4.22.11-8,.25-11.25.36-14.63.53-20.69.74-23.55-2.8A9.16,9.16,0,0,1,8,19a2.22,2.22,0,0,0,2-2.21V2.24A2.24,2.24,0,0,0,7.76,0H2.24A2.24,2.24,0,0,0,0,2.24V16.76A2.24,2.24,0,0,0,2.24,19H5a12.13,12.13,0,0,0,2.48,6.92c3.8,4.7,10.29,4.47,26,3.91,3.29-.12,7-.25,11.22-.36,21-.55,25.13.26,26.76,2.41s1.22,4.29.08,9.39A83.8,83.8,0,0,0,69.15,61a76,76,0,0,0,.79,11.44c.46,3.36.53,4.3-.49,5.66-3,4-10,3.21-17.46,2.39-8.21-.9-16.7-1.83-21.46,3.52-2.31,2.58-3.33,6.27-3.08,11H25.24A2.24,2.24,0,0,0,23,97.24v14.52A2.24,2.24,0,0,0,25.24,114h5.52A2.24,2.24,0,0,0,33,111.76V97.24A2.24,2.24,0,0,0,30.76,95h-.32c-.24-4,.53-7,2.33-9,3.73-4.19,11.44-3.35,18.89-2.53,8,.88,16.18,1.78,20.19-3.57,1.8-2.4,1.53-4.46,1.07-7.86a74.28,74.28,0,0,1-.77-11,81,81,0,0,1,2.31-19C75.61,36.79,76.37,33.4,73.84,30.07Z"/></g></g></svg>