<svg xmlns="http://www.w3.org/2000/svg" viewBox="0 0 322.85 107"><title>Asset 3</title><g id="Layer_2" data-name="Layer 2"><g id="Layer_1-2" data-name="Layer 1"><path d="M320.62,0h-5.53a2.24,2.24,0,0,0-2.24,2.24V16.76a2.24,2.24,0,0,0,1.8,2.2,9.59,9.59,0,0,1-1.32,4.78c-3.91,6.28-15.92,4.82-34.09,2.62-10.51-1.28-23.6-2.86-38.59-3.33a141.17,141.17,0,0,0-26.45,1.25c-7.85,1-17.62,2.2-39.63,2.75-13,.33-31-.12-66.93-1-9.17-.23-18.52.16-27.57.54-16.26.67-33.08,1.37-49.2-1.52l-3-.55c-10.32-1.92-22-4.1-26.5,2.15C-.88,29.81,0,33.29,1.28,38.1A76.35,76.35,0,0,1,4.11,55.59,63.39,63.39,0,0,1,3.29,69c-.55,3.58-.91,6,1.15,8.48,4.45,5.44,13.75,3.68,22.75,2,8.52-1.61,17.34-3.28,21.31,1.07,1.55,1.69,2.3,4.19,2.25,7.46h-.66a2.24,2.24,0,0,0-2.24,2.24v14.52A2.24,2.24,0,0,0,50.09,107h5.53a2.23,2.23,0,0,0,2.23-2.24V90.24A2.23,2.23,0,0,0,55.62,88h-1.9c.05-4.06-.95-7.23-3-9.48-5.1-5.58-14.75-3.76-24.08-2-8.14,1.53-16.55,3.12-19.86-.94-1.17-1.43-1-2.61-.51-6.12a65.69,65.69,0,0,0,.84-14A79.37,79.37,0,0,0,4.19,37.34c-1.25-4.8-1.75-7-.37-8.94,3.38-4.7,14.55-2.62,23.52-.95l3,.56C46.79,31,63.77,30.25,80.2,29.57c9-.38,18.3-.76,27.37-.54,36,.88,54,1.33,67.07,1,22.16-.56,32-1.78,39.93-2.77a137.53,137.53,0,0,1,26-1.23c14.86.46,27.87,2,38.32,3.31,20,2.42,32.07,3.88,37-4A12.39,12.39,0,0,0,317.65,19h3a2.23,2.23,0,0,0,2.23-2.24V2.24A2.23,2.23,0,0,0,320.62,0Z"/></g></g></svg>