<svg xmlns="http://www.w3.org/2000/svg" viewBox="0 0 55.42 57.92"><title>Asset 3</title><g id="Layer_2" data-name="Layer 2"><g id="Layer_1-2" data-name="Layer 1"><rect x="0.1" y="46.98" width="5.97" height="10.94"/><rect x="12.44" y="41.6" width="5.97" height="16.32"/><rect x="24.78" y="35.63" width="5.97" height="22.29"/><rect x="37.11" y="21.9" width="5.97" height="36.01"/><rect x="49.45" y="9.17" width="5.97" height="48.75"/><path d="M45.22,8.79l-.55-7.74A1.13,1.13,0,0,0,42.91.2L36.48,4.55a1.13,1.13,0,0,0,.14,2l2,1A73.76,73.76,0,0,1,29.07,21C23.16,27.65,13.58,35.48,1.52,35.27a1.5,1.5,0,0,0-.05,3H2a33,33,0,0,0,16.65-4.68A52,52,0,0,0,31.29,23a76,76,0,0,0,10-14.27l2.32,1.13A1.12,1.12,0,0,0,45.22,8.79Z"/></g></g></svg>