<svg xmlns="http://www.w3.org/2000/svg" viewBox="0 0 55.32 56.03"><title>Asset 2</title><g id="Layer_2" data-name="Layer 2"><g id="Layer_1-2" data-name="Layer 1"><rect x="49.35" y="45.09" width="5.97" height="10.94"/><rect x="37.01" y="39.72" width="5.97" height="16.32"/><rect x="24.67" y="33.75" width="5.97" height="22.29"/><rect x="12.34" y="20.02" width="5.97" height="36.01"/><rect y="7.28" width="5.97" height="48.75"/><path d="M54.49,31.79,48.71,26.6a1.12,1.12,0,0,0-1.85.6l-.53,2.5c-10.87-.81-19.52-8-25-14.1A72.67,72.67,0,0,1,11.16.84a1.49,1.49,0,0,0-2.68,1.3A73.33,73.33,0,0,0,19.05,17.53,52.47,52.47,0,0,0,31.69,28.09a33.72,33.72,0,0,0,14,4.55l-.45,2.16a1.12,1.12,0,0,0,1.45,1.3l7.38-2.4A1.13,1.13,0,0,0,54.49,31.79Z"/></g></g></svg>