<svg xmlns="http://www.w3.org/2000/svg" viewBox="0 0 55.32 54.56"><title>Asset 1</title><g id="Layer_2" data-name="Layer 2"><g id="Layer_1-2" data-name="Layer 1"><rect y="43.61" width="5.97" height="10.94"/><rect x="37.01" y="38.24" width="5.97" height="16.32"/><rect x="12.34" y="32.27" width="5.97" height="22.29"/><rect x="24.67" y="18.54" width="5.97" height="36.01"/><rect x="49.35" y="5.81" width="5.97" height="48.75"/><path d="M45.92.15,39.19,4a1.13,1.13,0,0,0,0,2l2.35,1.35C39.7,12.2,39.17,17.84,39,22.39A19.13,19.13,0,0,0,35.19,16c-1.57-1.58-5.25-5.3-9.47-4.6-3.62.6-5.41,3.14-7.48,6.09a36.34,36.34,0,0,1-3.89,4.88A7,7,0,0,1,11.56,24a12,12,0,0,0-5.23,3.55A15.72,15.72,0,0,0,4.12,32a18.28,18.28,0,0,1-2.18,4.43,1.49,1.49,0,0,0,.18,2.1,1.5,1.5,0,0,0,2.11-.18A20,20,0,0,0,6.9,33.05a15.08,15.08,0,0,1,1.68-3.52,9.08,9.08,0,0,1,4.07-2.73,10.1,10.1,0,0,0,3.84-2.34,40.46,40.46,0,0,0,4.19-5.25c1.89-2.69,3.14-4.47,5.53-4.87,2.7-.44,5.61,2.5,6.85,3.76,2.62,2.64,4,7.76,4.8,10.51.2.71.35,1.27.49,1.69.53,1.54,1.42,1.68,2.07,1.54,1.27-.29,1.36-1.66,1.41-2.4s.05-1.58.06-2.73c0-4.49.14-11.87,2.27-17.85l1.76,1a1.13,1.13,0,0,0,1.69-1V1.13A1.13,1.13,0,0,0,45.92.15Z"/></g></g></svg>