<svg xmlns="http://www.w3.org/2000/svg" viewBox="0 0 179.55 180.65"><defs><style>.cls-1{fill:#231f20;}</style></defs><title>Asset 8</title><g id="Layer_2" data-name="Layer 2"><g id="Layer_1-2" data-name="Layer 1"><path class="cls-1" d="M148.76,153.23v-8.52h5.5a14.55,14.55,0,0,0,8.22-2.2,7.37,7.37,0,0,0,3.29-6.55,7.62,7.62,0,0,0-2.79-6.42,11.44,11.44,0,0,0-7.18-2.15q-8.88,0-12.09,8.7l-9.89-1.71a19.09,19.09,0,0,1,7.72-11.21,24.23,24.23,0,0,1,14.56-4.35,23.93,23.93,0,0,1,14.48,4.37,13.78,13.78,0,0,1,6,11.72,14,14,0,0,1-3.23,9.31,11.11,11.11,0,0,1-8,4.22,15.3,15.3,0,0,1,9.47,4.88,13.94,13.94,0,0,1,3.58,9.62,15.58,15.58,0,0,1-6.22,12.72q-6.22,5-16.55,5-9.53,0-15.75-4.85t-7.84-11.14l10.23-2.51q3.09,10,13.28,10a12.82,12.82,0,0,0,8.5-2.7,8.25,8.25,0,0,0,3.23-6.53,9.53,9.53,0,0,0-2.79-6.79q-2.79-2.93-8.42-2.92Z"/><rect class="cls-1" x="22.68" y="64.92" width="124.09" height="59.81" rx="6" transform="translate(-42.24 87.68) rotate(-45)"/><rect class="cls-1" x="135.96" y="-0.31" width="28" height="59.81" rx="3.5" transform="translate(22.99 114.7) rotate(-45)"/><path class="cls-1" d="M3.11,179.52l41.14-6.29a2.7,2.7,0,0,0,1.5-4.58L10.9,133.8a2.7,2.7,0,0,0-4.58,1.5L0,176.44A2.71,2.71,0,0,0,3.11,179.52Z"/></g></g></svg>