<svg xmlns="http://www.w3.org/2000/svg" viewBox="0 0 180.69 179.55"><defs><style>.cls-1{fill:#231f20;}</style></defs><title>Asset 7</title><g id="Layer_2" data-name="Layer 2"><g id="Layer_1-2" data-name="Layer 1"><rect class="cls-1" x="22.68" y="64.92" width="124.09" height="59.81" rx="6" transform="translate(-42.24 87.68) rotate(-45)"/><rect class="cls-1" x="135.96" y="-0.31" width="28" height="59.81" rx="3.5" transform="translate(22.99 114.7) rotate(-45)"/><path class="cls-1" d="M3.11,179.52l41.14-6.29a2.7,2.7,0,0,0,1.5-4.58L10.9,133.8a2.7,2.7,0,0,0-4.58,1.5L0,176.44A2.71,2.71,0,0,0,3.11,179.52Z"/><path class="cls-1" d="M180.52,169.6V179H136.31V168.45l18.37-12.21q8.56-5.72,11.51-10.13c2-3,2.95-5.65,2.95-8.11a10.32,10.32,0,0,0-2.95-7.47,10.18,10.18,0,0,0-7.64-3q-10.29,0-11.83,12.52l-10.41-2.59a23.27,23.27,0,0,1,7.1-13.69q5.91-5.7,15.49-5.69,9.93,0,15.86,5.64A19,19,0,0,1,180.69,138a20.3,20.3,0,0,1-5.27,13.74q-5.26,6-26.15,17.82Z"/></g></g></svg>