<svg xmlns="http://www.w3.org/2000/svg" viewBox="0 0 180.05 179.55"><defs><style>.cls-1{fill:#231f20;}</style></defs><title>Asset 2</title><g id="Layer_2" data-name="Layer 2"><g id="Layer_1-2" data-name="Layer 1"><path class="cls-1" d="M145,148.59q-10.54-4.83-10.54-14.37a15,15,0,0,1,5.82-12.15q5.82-4.77,16.28-4.77,9.54,0,15.31,4.26a13.35,13.35,0,0,1,5.78,11.3q0,8.56-10.67,13,13,5.58,13.05,15.78,0,7.56-6.53,12.53t-17.6,5q-11.68,0-17.64-4.59a14,14,0,0,1-6-11.54Q132.32,153.12,145,148.59Zm7.43,3.56a18.11,18.11,0,0,0-7.08,4.37,8.55,8.55,0,0,0-2.68,6q0,3.24,3.36,6t10.35,2.76q5.81,0,9.17-2.26a6.56,6.56,0,0,0,.57-11.1Q163.35,155.62,152.45,152.15Zm7.07-9.41q8.31-3.42,8.31-9.53a7,7,0,0,0-3.38-6.2,14.12,14.12,0,0,0-7.83-2.2,15.2,15.2,0,0,0-7.93,2,6.33,6.33,0,0,0-3.32,5.76,6.52,6.52,0,0,0,3.61,6A54.28,54.28,0,0,0,159.52,142.74Z"/><rect class="cls-1" x="22.68" y="64.92" width="124.09" height="59.81" rx="6" transform="translate(-42.24 87.68) rotate(-45)"/><rect class="cls-1" x="135.96" y="-0.31" width="28" height="59.81" rx="3.5" transform="translate(22.99 114.7) rotate(-45)"/><path class="cls-1" d="M3.11,179.52l41.14-6.29a2.7,2.7,0,0,0,1.5-4.58L10.9,133.8a2.7,2.7,0,0,0-4.58,1.5L0,176.44A2.71,2.71,0,0,0,3.11,179.52Z"/></g></g></svg>