<svg xmlns="http://www.w3.org/2000/svg" viewBox="0 0 179.83 179.65"><defs><style>.cls-1{fill:#231f20;}</style></defs><title>Asset 5</title><g id="Layer_2" data-name="Layer 2"><g id="Layer_1-2" data-name="Layer 1"><path class="cls-1" d="M138.92,118.74h37.31l-1,9.28H146.83l-1.67,17.4a17.07,17.07,0,0,1,14.1-6.9,19.82,19.82,0,0,1,14.62,6,19.44,19.44,0,0,1,6,14.19,20.1,20.1,0,0,1-6.24,14.77q-6.24,6.19-17.14,6.19a28.21,28.21,0,0,1-15.14-4q-6.48-4-8.41-12.43l10.37-1.54q3,9.18,12.61,9.18,5.9,0,9.08-3.56a12.46,12.46,0,0,0,3.18-8.61,12,12,0,0,0-3.16-8.46,10.64,10.64,0,0,0-8.22-3.45q-7.65,0-11.6,7l-9.67-1.89Z"/><rect class="cls-1" x="22.68" y="64.92" width="124.09" height="59.81" rx="6" transform="translate(-42.24 87.68) rotate(-45)"/><rect class="cls-1" x="135.96" y="-0.31" width="28" height="59.81" rx="3.5" transform="translate(22.99 114.7) rotate(-45)"/><path class="cls-1" d="M3.11,179.52l41.14-6.29a2.7,2.7,0,0,0,1.5-4.58L10.9,133.8a2.7,2.7,0,0,0-4.58,1.5L0,176.44A2.71,2.71,0,0,0,3.11,179.52Z"/></g></g></svg>