<svg xmlns="http://www.w3.org/2000/svg" viewBox="0 0 179.55 179.55"><defs><style>.cls-1{fill:#231f20;}</style></defs><title>Asset 9</title><g id="Layer_2" data-name="Layer 2"><g id="Layer_1-2" data-name="Layer 1"><rect class="cls-1" x="22.68" y="64.92" width="124.09" height="59.81" rx="6" transform="translate(-42.24 87.68) rotate(-45)"/><rect class="cls-1" x="135.96" y="-0.31" width="28" height="59.81" rx="3.5" transform="translate(22.99 114.7) rotate(-45)"/><path class="cls-1" d="M3.11,179.52l41.14-6.29a2.7,2.7,0,0,0,1.5-4.58L10.9,133.8a2.7,2.7,0,0,0-4.58,1.5L0,176.44A2.71,2.71,0,0,0,3.11,179.52Z"/><path class="cls-1" d="M177.69,179.23H131.76v-8.84h18.06V132.51q-9,7.88-16.39,10.81V132.51a67.79,67.79,0,0,0,9.41-4.06,49.74,49.74,0,0,0,5.53-4.48,24.79,24.79,0,0,0,5.15-6h7.2v52.38h17Z"/></g></g></svg>