<svg xmlns="http://www.w3.org/2000/svg" viewBox="0 0 181.22 179.55"><defs><style>.cls-1{fill:#231f20;}</style></defs><title>Asset 1</title><g id="Layer_2" data-name="Layer 2"><g id="Layer_1-2" data-name="Layer 1"><rect class="cls-1" x="22.68" y="64.92" width="124.09" height="59.81" rx="6" transform="translate(-42.24 87.68) rotate(-45)"/><rect class="cls-1" x="135.96" y="-0.31" width="28" height="59.81" rx="3.5" transform="translate(22.99 114.7) rotate(-45)"/><path class="cls-1" d="M3.11,179.52l41.14-6.29a2.7,2.7,0,0,0,1.5-4.58L10.9,133.8a2.7,2.7,0,0,0-4.58,1.5L0,176.44A2.71,2.71,0,0,0,3.11,179.52Z"/><path class="cls-1" d="M165.31,162h-8.57V156a8,8,0,0,1,1.21-4.7,28.08,28.08,0,0,1,5.29-4.88q6.24-4.78,6.24-10.15a8.54,8.54,0,0,0-2.44-6.42,8.71,8.71,0,0,0-6.35-2.37q-9,0-10.68,12.53l-9.58-1.72q.88-9.36,6.93-14.7a21.1,21.1,0,0,1,14.48-5.34,19.89,19.89,0,0,1,13.88,5,16.1,16.1,0,0,1,5.5,12.41,16.65,16.65,0,0,1-1.52,7,16.27,16.27,0,0,1-3.45,5.15q-1.94,1.81-8.17,6.39a6.27,6.27,0,0,0-2.25,2.48A18.34,18.34,0,0,0,165.31,162Zm1.76,6.24v11H156.74v-11Z"/></g></g></svg>