<svg xmlns="http://www.w3.org/2000/svg" viewBox="0 0 179.55 179.55"><defs><style>.cls-1{fill:#231f20;}</style></defs><title>Asset 4</title><g id="Layer_2" data-name="Layer 2"><g id="Layer_1-2" data-name="Layer 1"><path class="cls-1" d="M177,131.89l-9.15,1.76q-2.53-8.44-10.54-8.44-7.65,0-10.7,6.61a32.85,32.85,0,0,0-3.06,14c0,1,0,1.93.05,2.9q4.49-9,15.47-9a19.89,19.89,0,0,1,14.23,5.4A18,18,0,0,1,179,158.7a19.37,19.37,0,0,1-6.11,14.56,21.32,21.32,0,0,1-15.38,5.87q-11.57,0-18.17-8.15t-6.62-22.35q0-13.92,6.48-22.63a20.6,20.6,0,0,1,17.38-8.7Q173,117.3,177,131.89Zm-19.87,39.29a11.89,11.89,0,0,0,8.15-2.93q3.33-2.91,3.32-8.94a11.42,11.42,0,0,0-3.14-7.65,11,11,0,0,0-8.72-3.56,10.64,10.64,0,0,0-8.22,3.39,11.79,11.79,0,0,0-3.12,8.3A11.07,11.07,0,0,0,148.6,168,11.52,11.52,0,0,0,157.12,171.18Z"/><rect class="cls-1" x="22.68" y="64.92" width="124.09" height="59.81" rx="6" transform="translate(-42.24 87.68) rotate(-45)"/><rect class="cls-1" x="135.96" y="-0.31" width="28" height="59.81" rx="3.5" transform="translate(22.99 114.7) rotate(-45)"/><path class="cls-1" d="M3.11,179.52l41.14-6.29a2.7,2.7,0,0,0,1.5-4.58L10.9,133.8a2.7,2.7,0,0,0-4.58,1.5L0,176.44A2.71,2.71,0,0,0,3.11,179.52Z"/></g></g></svg>