<svg xmlns="http://www.w3.org/2000/svg" viewBox="0 0 179.89 179.73"><defs><style>.cls-1{fill:#231f20;}</style></defs><title>Asset 6</title><g id="Layer_2" data-name="Layer 2"><g id="Layer_1-2" data-name="Layer 1"><path class="cls-1" d="M170.88,179.73H159.77V166.11H133.13V158.2l26.64-39.69h11.11v38.37h9v9.23h-9Zm-10.32-49.92-17,27.07h16.22V140.31a37.86,37.86,0,0,1,.26-4.75Z"/><rect class="cls-1" x="22.68" y="64.92" width="124.09" height="59.81" rx="6" transform="translate(-42.24 87.68) rotate(-45)"/><rect class="cls-1" x="135.96" y="-0.31" width="28" height="59.81" rx="3.5" transform="translate(22.99 114.7) rotate(-45)"/><path class="cls-1" d="M3.11,179.52l41.14-6.29a2.7,2.7,0,0,0,1.5-4.58L10.9,133.8a2.7,2.7,0,0,0-4.58,1.5L0,176.44A2.71,2.71,0,0,0,3.11,179.52Z"/></g></g></svg>